<?xml version="1.0" encoding="utf-8"?>
<?xml-stylesheet type="text/xsl" href="rss1.xsl"?>
<rss version="2.0" xmlns:atom="http://www.w3.org/2005/Atom" xmlns:content="http://purl.org/rss/1.0/modules/content/" xmlns:dc="http://purl.org/dc/elements/1.1/" xmlns:media="http://search.yahoo.com/mrss/">
<channel>
 <title>Getty</title>
 <link>http://www.gettyimg.com/</link>
 <atom:link href="http://www.gettyimg.com/" rel="self" type="application/rss+xml" />

 
                <item>
                <title><![CDATA[【Cinema Center】SERIES - The Patrick Star Show - Season 1 - 1080p Amazon WEB-DL DDP2.0 H.264-LAZY]]></title>
                <link><![CDATA[https://sharemania.us/threads/the-patrick-star-show-season-1-1080p-amazon-web-dl-ddp2-0-h-264-lazy.232278/]]></link>
                <description><![CDATA[<article>
<blockquote class="messageText SelectQuoteContainer ugc baseHtml">
The Patrick Star Show:<img src="https://imgbin.broadcasthe.net/i/1LmHdXPIHhqTAMwrryz_g.png" class="bbCodeImage LbImage" alt="[​IMG]" data-url="https://imgbin.broadcasthe.net/i/1LmHdXPIHhqTAMwrryz_g.png" style=""> <br>
<br>
<div class="bbCodeBlock bbCodeQuote">
<aside>
<blockquote class="quoteContainer"><div class="quote"><i><b>Synopsis:</b></i><br>
The Patrick Star Show follows everyone’s favorite sea star as he hosts a variety show inspired by the inner machinations of his mind.</div><div class="quoteExpand">Click to expand...</div></blockquote>
</aside>
</div>
<div class="ToggleTriggerAnchor bbCodeSpoilerContainer">
<button type="button" class="button bbCodeSpoilerButton ToggleTrigger Tooltip JsOnly" data-target="> .SpoilerTarget"><span>Spoiler: <span class="SpoilerTitle">MediaInfo</span></span></button>
<div class="SpoilerTarget bbCodeSpoilerText">General<br>
Unique ID : 133763552522132626687652147821206539431 (0x64A1EC520D0EC1913EBE40E5A4AB8CA7)<br>
Complete name : The.Patrick.Star.Show.S01E01E02.Late.for.Breakfast.-.Bummer.Jobs.1080p.AMZN.WEB-DL.DDP2.0.H.264-LAZY.mkv<br>
Format : Matroska<br>
Format version : Version 4<br>
File size : 960 MiB<br>
Duration : 22 min 40 s<br>
Overall bit rate : 5 919 kb/s<br>
Frame rate : 23.976 FPS<br>
Encoded date : 2023-11-14 21:13:27 UTC<br>
Writing application : mkvmerge v80.0 ('Roundabout') 64-bit<br>
Writing library : libebml v1.4.4 + libmatroska v1.7.1<br>
<br>
Video<br>
ID : 1<br>
Format : AVC<br>
Format/Info : Advanced Video Codec<br>
Format profile : High@L4<br>
Format settings : CABAC / 4 Ref Frames<br>
Format settings, CABAC : Yes<br>
Format settings, Reference frames : 4 frames<br>
Codec ID : V_MPEG4/ISO/AVC<br>
Duration : 22 min 40 s<br>
Bit rate mode : Constant<br>
Bit rate : 5 693 kb/s<br>
Nominal bit rate : 10 000 kb/s<br>
Width : 1 920 pixels<br>
Height : 1 080 pixels<br>
Display aspect ratio : 16:9<br>
Frame rate mode : Constant<br>
Frame rate : 23.976 (24000/1001) FPS<br>
Color space : YUV<br>
Chroma subsampling : 4:2:0<br>
Bit depth : 8 bits<br>
Scan type : Progressive<br>
Bits/(Pixel*Frame) : 0.115<br>
Stream size : 923 MiB (96%)<br>
Default : Yes<br>
Forced : No<br>
Color range : Limited<br>
Color primaries : BT.709<br>
Transfer characteristics : BT.709<br>
Matrix coefficients : BT.709<br>
<br>
Audio<br>
ID : 2<br>
Format : E-AC-3<br>
Format/Info : Enhanced AC-3<br>
Commercial name : Dolby Digital Plus<br>
Codec ID : A_EAC3<br>
Duration : 22 min 40 s<br>
Bit rate mode : Constant<br>
Bit rate : 224 kb/s<br>
Channel(s) : 2 channels<br>
Channel layout : L R<br>
Sampling rate : 48.0 kHz<br>
Frame rate : 31.250 FPS (1536 SPF)<br>
Compression mode : Lossy<br>
Stream size : 36.3 MiB (4%)<br>
Language : English<br>
Service kind : Complete Main<br>
Default : Yes<br>
Forced : No<br>
<br>
Text<br>
ID : 3<br>
Format : UTF-8<br>
Codec ID : S_TEXT/UTF8<br>
Codec ID/Info : UTF-8 Plain Text<br>
Duration : 22 min 9 s<br>
Bit rate : 78 b/s<br>
Frame rate : 0.436 FPS<br>
Count of elements : 579<br>
Stream size : 12.7 KiB (0%)<br>
Title : SDH<br>
Language : English<br>
Default : No<br>
Forced : No</div>
</div><br>
Screenshots:<br>
<img src="https://i.imgur.com/Q4je6g9.jpg" class="bbCodeImage LbImage" alt="[​IMG]" data-url="https://i.imgur.com/Q4je6g9.jpg" style=""> <br>
<img src="https://cdn.imagecurl.com/images/15493664837818873493.png" class="bbCodeImage LbImage" alt="[​IMG]" data-url="https://cdn.imagecurl.com/images/15493664837818873493.png" style=""><br>
<img src="https://cdn.imagecurl.com/images/98222032194742565099.png" class="bbCodeImage LbImage" alt="[​IMG]" data-url="https://cdn.imagecurl.com/images/98222032194742565099.png" style=""><br>
<div class="bbCodeBlock bbCodeVfcHH HiddenContent">
<div class="attribution type">Hidden Content:</div>
<blockquote>You must either reply or click 'Like' to see the hidden information contained here.</blockquote>
</div>
<div class="messageTextEndMarker">&nbsp;</div>
</blockquote>
</article>]]></description>
                <author><![CDATA[LazyRips]]></author>
                </item>

                
                <item>
                <title><![CDATA[【Cinema Center】SERIES - Blue's Clues &amp; You - Season 4 - 1080p Amazon WEB-DL DDP5.1 H.264-LAZY]]></title>
                <link><![CDATA[https://sharemania.us/threads/blues-clues-you-season-4-1080p-amazon-web-dl-ddp5-1-h-264-lazy.232277/]]></link>
                <description><![CDATA[<article>
<blockquote class="messageText SelectQuoteContainer ugc baseHtml">
Blues Clues &amp; You!:<img src="https://i.imgur.com/kqcSMYR.jpg" class="bbCodeImage LbImage" alt="[​IMG]" data-url="https://i.imgur.com/kqcSMYR.jpg" style=""> <br>
<br>
<div class="bbCodeBlock bbCodeQuote">
<aside>
<blockquote class="quoteContainer"><div class="quote"><i><b>Synopsis:</b></i><br>
Blue invites viewers to join her and friend Josh on a clue-led adventure and solve a puzzle.</div><div class="quoteExpand">Click to expand...</div></blockquote>
</aside>
</div>
<div class="ToggleTriggerAnchor bbCodeSpoilerContainer">
<button type="button" class="button bbCodeSpoilerButton ToggleTrigger Tooltip JsOnly" data-target="> .SpoilerTarget"><span>Spoiler: <span class="SpoilerTitle">MediaInfo</span></span></button>
<div class="SpoilerTarget bbCodeSpoilerText">General<br>
Unique ID : 65370499335057410198252671785138577547 (0x312DE6747BB613AE1AC7713B928AE08B)<br>
Complete name : Blues.Clues.and.You.S04E01.The.Legend.of.the.Jack.OLantern.1080p.AMZN.WEB-DL.DDP5.1.H.264-LAZY.mkv<br>
Format : Matroska<br>
Format version : Version 4<br>
File size : 1.21 GiB<br>
Duration : 22 min 44 s<br>
Overall bit rate : 7 642 kb/s<br>
Frame rate : 23.976 FPS<br>
Encoded date : 2023-11-12 21:00:51 UTC<br>
Writing application : mkvmerge v80.0 ('Roundabout') 64-bit<br>
Writing library : libebml v1.4.4 + libmatroska v1.7.1<br>
<br>
Video<br>
ID : 1<br>
Format : AVC<br>
Format/Info : Advanced Video Codec<br>
Format profile : High@L4<br>
Format settings : CABAC / 4 Ref Frames<br>
Format settings, CABAC : Yes<br>
Format settings, Reference frames : 4 frames<br>
Codec ID : V_MPEG4/ISO/AVC<br>
Duration : 22 min 44 s<br>
Bit rate mode : Constant<br>
Bit rate : 7 000 kb/s<br>
Nominal bit rate : 10 000 kb/s<br>
Width : 1 920 pixels<br>
Height : 1 080 pixels<br>
Display aspect ratio : 16:9<br>
Frame rate mode : Constant<br>
Frame rate : 23.976 (24000/1001) FPS<br>
Color space : YUV<br>
Chroma subsampling : 4:2:0<br>
Bit depth : 8 bits<br>
Scan type : Progressive<br>
Bits/(Pixel*Frame) : 0.141<br>
Stream size : 1.11 GiB (92%)<br>
Default : Yes<br>
Forced : No<br>
Color range : Limited<br>
Color primaries : BT.709<br>
Transfer characteristics : BT.709<br>
Matrix coefficients : BT.709<br>
<br>
Audio<br>
ID : 2<br>
Format : E-AC-3<br>
Format/Info : Enhanced AC-3<br>
Commercial name : Dolby Digital Plus<br>
Codec ID : A_EAC3<br>
Duration : 22 min 44 s<br>
Bit rate mode : Constant<br>
Bit rate : 640 kb/s<br>
Channel(s) : 6 channels<br>
Channel layout : L R C LFE Ls Rs<br>
Sampling rate : 48.0 kHz<br>
Frame rate : 31.250 FPS (1536 SPF)<br>
Compression mode : Lossy<br>
Stream size : 104 MiB (8%)<br>
Language : English<br>
Service kind : Complete Main<br>
Default : Yes<br>
Forced : No<br>
<br>
Text<br>
ID : 3<br>
Format : UTF-8<br>
Codec ID : S_TEXT/UTF8<br>
Codec ID/Info : UTF-8 Plain Text<br>
Duration : 22 min 29 s<br>
Bit rate : 72 b/s<br>
Frame rate : 0.346 FPS<br>
Count of elements : 467<br>
Stream size : 12.0 KiB (0%)<br>
Title : SDH<br>
Language : English<br>
Default : No<br>
Forced : No</div>
</div><br>
Screenshots:<br>
<img src="https://i.imgur.com/xdbEhAj.jpg" class="bbCodeImage LbImage" alt="[​IMG]" data-url="https://i.imgur.com/xdbEhAj.jpg" style=""> <br>
<img src="https://cdn.imagecurl.com/images/15493664837818873493.png" class="bbCodeImage LbImage" alt="[​IMG]" data-url="https://cdn.imagecurl.com/images/15493664837818873493.png" style=""><br>
<img src="https://cdn.imagecurl.com/images/98222032194742565099.png" class="bbCodeImage LbImage" alt="[​IMG]" data-url="https://cdn.imagecurl.com/images/98222032194742565099.png" style=""><br>
<div class="bbCodeBlock bbCodeVfcHH HiddenContent">
<div class="attribution type">Hidden Content:</div>
<blockquote>You must either reply or click 'Like' to see the hidden information contained here.</blockquote>
</div>
<div class="messageTextEndMarker">&nbsp;</div>
</blockquote>
</article>]]></description>
                <author><![CDATA[LazyRips]]></author>
                </item>

                </channel></rss>